<svg xmlns="http://www.w3.org/2000/svg" xmlns:xlink="http://www.w3.org/1999/xlink" width="500" zoomAndPan="magnify" viewBox="0 0 375 374.999991" height="500" preserveAspectRatio="xMidYMid meet" version="1.0"><defs><clipPath id="3b8e07bbc8"><path d="M 175 92 L 364 92 L 364 280 L 175 280 Z M 175 92 " clip-rule="nonzero"/></clipPath><clipPath id="21c23db692"><path d="M 156.519531 255.679688 L 199.589844 73.191406 L 382.074219 116.265625 L 339.003906 298.75 Z M 156.519531 255.679688 " clip-rule="nonzero"/></clipPath><clipPath id="9bbee6ad96"><path d="M 178.054688 164.4375 C 189.949219 114.042969 240.441406 82.835938 290.832031 94.730469 C 341.226562 106.625 372.433594 157.117188 360.539062 207.507812 C 348.644531 257.898438 298.152344 289.109375 247.761719 277.214844 C 197.371094 265.320312 166.160156 214.828125 178.054688 164.4375 L 214.550781 173.050781 C 207.414062 203.285156 226.140625 233.582031 256.375 240.71875 C 286.609375 247.855469 316.90625 229.128906 324.042969 198.894531 C 331.179688 168.660156 312.453125 138.363281 282.21875 131.226562 C 251.984375 124.089844 221.6875 142.816406 214.550781 173.050781 Z M 178.054688 164.4375 " clip-rule="nonzero"/></clipPath><clipPath id="cd1111bc25"><path d="M 184 92 L 364 92 L 364 270 L 184 270 Z M 184 92 " clip-rule="nonzero"/></clipPath><clipPath id="7fe6e71989"><path d="M 163.199219 236.9375 L 201.898438 72.984375 L 382.957031 115.71875 L 344.257812 279.671875 Z M 163.199219 236.9375 " clip-rule="nonzero"/></clipPath><clipPath id="b87ed5f075"><path d="M 186.335938 142.308594 C 204.902344 107.035156 243.742188 87.355469 283.164062 93.253906 C 322.585938 99.148438 353.972656 129.332031 361.402344 168.492188 C 368.835938 207.65625 350.691406 247.234375 316.167969 267.164062 C 307.199219 272.339844 295.734375 269.269531 290.554688 260.300781 C 285.378906 251.332031 288.453125 239.863281 297.417969 234.6875 C 318.132812 222.730469 329.019531 198.980469 324.5625 175.484375 C 320.101562 151.988281 301.269531 133.878906 277.617188 130.339844 C 253.964844 126.804688 230.660156 138.609375 219.519531 159.773438 C 216.402344 165.703125 210.355469 169.515625 203.660156 169.777344 C 196.96875 170.039062 190.644531 166.710938 187.070312 161.042969 C 183.496094 155.378906 183.214844 148.238281 186.335938 142.308594 Z M 186.335938 142.308594 " clip-rule="nonzero"/></clipPath><clipPath id="8fef202cb7"><path d="M 27 70 L 215 70 L 215 258 L 27 258 Z M 27 70 " clip-rule="nonzero"/></clipPath><clipPath id="782ef4e966"><path d="M 195.082031 273.847656 L 11.097656 237.710938 L 47.234375 53.726562 L 231.21875 89.863281 Z M 195.082031 273.847656 " clip-rule="nonzero"/></clipPath><clipPath id="7f9295f054"><path d="M 103.089844 255.777344 C 52.285156 245.800781 19.1875 196.523438 29.167969 145.71875 C 39.144531 94.910156 88.421875 61.8125 139.226562 71.792969 C 190.035156 81.773438 223.128906 131.046875 213.152344 181.855469 C 203.171875 232.660156 153.894531 265.757812 103.089844 255.777344 L 110.316406 218.980469 C 140.800781 224.96875 170.367188 205.109375 176.355469 174.625 C 182.339844 144.144531 162.484375 114.578125 132 108.589844 C 101.515625 102.601562 71.949219 122.460938 65.964844 152.945312 C 59.976562 183.429688 79.835938 212.992188 110.316406 218.980469 Z M 103.089844 255.777344 " clip-rule="nonzero"/></clipPath><clipPath id="5089111639"><path d="M 27 70 L 204 70 L 204 251 L 27 251 Z M 27 70 " clip-rule="nonzero"/></clipPath><clipPath id="ee30ab4604"><path d="M 176.101562 267.878906 L 10.804688 235.414062 L 46.65625 52.863281 L 211.957031 85.332031 Z M 176.101562 267.878906 " clip-rule="nonzero"/></clipPath><clipPath id="e1128af60b"><path d="M 80.667969 248.339844 C 44.714844 231.121094 23.582031 193.054688 27.980469 153.4375 C 32.382812 113.816406 61.355469 81.316406 100.207031 72.40625 C 139.0625 63.5 179.300781 80.132812 200.519531 113.875 C 206.03125 122.640625 203.394531 134.21875 194.628906 139.730469 C 185.863281 145.242188 174.289062 142.605469 168.777344 133.839844 C 156.042969 113.59375 131.898438 103.613281 108.589844 108.957031 C 85.277344 114.304688 67.894531 133.804688 65.253906 157.574219 C 62.613281 181.347656 75.292969 204.1875 96.863281 214.519531 C 102.90625 217.410156 106.945312 223.308594 107.460938 229.988281 C 107.972656 236.664062 104.886719 243.113281 99.359375 246.898438 C 93.835938 250.683594 86.707031 251.234375 80.667969 248.339844 Z M 80.667969 248.339844 " clip-rule="nonzero"/></clipPath></defs><g clip-path="url(#3b8e07bbc8)"><g clip-path="url(#21c23db692)"><g clip-path="url(#9bbee6ad96)"><path fill="#fdde55" d="M 156.519531 255.679688 L 199.589844 73.191406 L 382.074219 116.265625 L 339.003906 298.75 Z M 156.519531 255.679688 " fill-opacity="1" fill-rule="nonzero"/></g></g></g><g clip-path="url(#cd1111bc25)"><g clip-path="url(#7fe6e71989)"><g clip-path="url(#b87ed5f075)"><path fill="#03aed2" d="M 156.519531 255.679688 L 199.589844 73.191406 L 382.074219 116.265625 L 339.003906 298.75 Z M 156.519531 255.679688 " fill-opacity="1" fill-rule="nonzero"/></g></g></g><g clip-path="url(#8fef202cb7)"><g clip-path="url(#782ef4e966)"><g clip-path="url(#7f9295f054)"><path fill="#fdde55" d="M 195.082031 273.847656 L 11.097656 237.710938 L 47.234375 53.726562 L 231.21875 89.863281 Z M 195.082031 273.847656 " fill-opacity="1" fill-rule="nonzero"/></g></g></g><g clip-path="url(#5089111639)"><g clip-path="url(#ee30ab4604)"><g clip-path="url(#e1128af60b)"><path fill="#5ce1e6" d="M 195.082031 273.847656 L 11.097656 237.710938 L 47.234375 53.726562 L 231.21875 89.863281 Z M 195.082031 273.847656 " fill-opacity="1" fill-rule="nonzero"/></g></g></g><path stroke-linecap="round" transform="matrix(0.504765, -0.554718, 0.554718, 0.504765, 17.722754, 241.863675)" fill="none" stroke-linejoin="miter" d="M 5.499879 5.501679 L 48.087781 5.500285 " stroke="#5ce1e6" stroke-width="11" stroke-opacity="1" stroke-miterlimit="4"/><path stroke-linecap="round" transform="matrix(0.710603, -0.239881, 0.239881, 0.710603, 19.455761, 240.734485)" fill="none" stroke-linejoin="miter" d="M 5.499888 5.501033 L 53.440038 5.500936 " stroke="#5ce1e6" stroke-width="11" stroke-opacity="1" stroke-miterlimit="4"/><path stroke-linecap="round" transform="matrix(-0.751907, -0.273393, 0.273393, -0.751907, 366.462081, 273.690743)" fill="none" stroke-linejoin="miter" d="M 5.498258 5.501711 L 48.092816 5.501014 " stroke="#03aed2" stroke-width="11" stroke-opacity="1" stroke-miterlimit="4"/><path stroke-linecap="round" transform="matrix(-0.524603, -0.604069, 0.604069, -0.524603, 364.645675, 272.43801)" fill="none" stroke-linejoin="miter" d="M 5.500432 5.499203 L 53.441332 5.501703 " stroke="#03aed2" stroke-width="11" stroke-opacity="1" stroke-miterlimit="4"/></svg>